<svg id="Layer_1" data-name="Layer 1" xmlns="http://www.w3.org/2000/svg" viewBox="0 0 184.57 143.73"><defs><style>.cls-1{fill:#663399;}</style></defs><path class="cls-1" d="M223.82,206.17H231c0,.63.09,1.25.09,1.87,0,5.14-.09,10.28,0,15.41a23.5,23.5,0,0,0,5.13,14.92c6.56,8,17.11,7.9,23.57-.21a23.25,23.25,0,0,0,5-14.77c.09-14.65.25-29.3,0-43.93-.33-18-5.51-34.39-17.73-48-7.52-8.38-16.75-14-28.07-15.42-13.92-1.72-25.71,3.1-35.73,12.63-1.11,1.06-2.17,2.17-3.26,3.25h-.09c-2.78-2.47-5.4-5.1-8.32-7.34a40.69,40.69,0,0,0-27.16-8.91c-12,.53-22,5.69-30.3,14.21-9.79,10-15.3,22.23-17.78,35.89-.49,2.71-.69,5.48-1.11,8.21-.07.42-.62,1.07-1,1.08-2.1.1-4.21,0-6.64,0,.39-3.31.63-6.4,1.16-9.45a79.63,79.63,0,0,1,12.6-32c7.26-10.6,16.53-18.85,28.9-22.87,17.76-5.76,33.81-2.08,48.15,9.65.41.33.81.68,1.18,1,2.93-2,5.71-4.25,8.72-6,18.24-10.89,40-9.38,56.72,3.94,12.11,9.64,19.52,22.37,23.81,37a82.35,82.35,0,0,1,3.3,23.71c-.07,14.94.15,29.88-.09,44.82a27.77,27.77,0,0,1-9.76,21.24c-10.86,9.35-25.9,6.76-33.67-5.59a31,31,0,0,1-4.92-16.9V208.2Z" transform="translate(-87.6 -108.06)"/><path class="cls-1" d="M87.74,211.87H95v10.82a26.29,26.29,0,0,0,2.09,10.5,18.86,18.86,0,0,0,7.18,8.77c6.53,4.13,14.14,2.75,19.28-3.46a23.62,23.62,0,0,0,5.23-15.43c.06-14.65,0-29.29,0-43.94a22.14,22.14,0,0,1,6.05-15.44c7.21-7.7,17.5-6.9,23.57,1.78a25.55,25.55,0,0,1,4.49,15c0,14.94-.09,29.89.14,44.82a20.13,20.13,0,0,0,8,15.82,14.26,14.26,0,0,0,20-2,22.43,22.43,0,0,0,5.58-14.92v-43.4a25.46,25.46,0,0,1,4.09-14.41c7.3-11,20.64-10.49,27.16,1a24.32,24.32,0,0,1,3.3,11.9H223.9c-.26-1.36-.45-2.76-.8-4.11a13.41,13.41,0,0,0-4.56-7.39c-3.09-2.5-6.26-2.53-9.31,0a13.89,13.89,0,0,0-5,10.9c-.12,14.82,0,29.65-.12,44.47a31.46,31.46,0,0,1-8,21.35,21.81,21.81,0,0,1-30.82,1.58l-.39-.36c-6.44-6.22-9.32-13.95-9.38-22.74-.1-14.41,0-28.82,0-43.23a17.22,17.22,0,0,0-3.23-10.28c-3.33-4.6-8.38-4.79-12.12-.51-2.92,3.35-3.93,7.35-3.94,11.63,0,14.77.11,29.53-.08,44.3a28.58,28.58,0,0,1-8.47,20.21c-9.93,10-25.28,8.63-33.86-3a30.3,30.3,0,0,1-6-18.14C87.72,220,87.74,216,87.74,211.87Z" transform="translate(-87.6 -108.06)"/></svg>